<?xml version="1.0" encoding="utf-8"?>
<!-- Generator: Adobe Illustrator 21.1.0, SVG Export Plug-In . SVG Version: 6.00 Build 0)  -->
<svg version="1.1" id="Layer_1" xmlns="http://www.w3.org/2000/svg" xmlns:xlink="http://www.w3.org/1999/xlink" x="0px" y="0px"
	 viewBox="0 0 2100 1952.8" style="enable-background:new 0 0 2100 1952.8;" xml:space="preserve">
<style type="text/css">
	.st0{fill:#FFF200;}
	.st1{fill:#D8D9DA;}
	.st2{fill:#155C95;}
</style>
<path class="st0" d="M425.2,382c-1.2-4.5-5.8-6.8-15-11.5c-1.7-0.9-3.6-1.9-5.7-2.9c-9.5-5-23.5-9.6-31.6-12.1
	c-1.5-0.5-3.2-3.8-0.1-4.2c14-2.1,16.4-8.9,18.7-15.5c0.3-0.9,0.6-1.8,1-2.7c3.8-9.6,2.1-17,1.5-19.4c-0.1-0.2-0.1-0.5-0.2-0.7
	c-0.6-2.2-0.7-3.1,0.3-4c2.6-2.2,1.3-8.3-1.6-20.6c-0.6-2.5-1.2-5.2-1.8-7.7c-2.3-10.7-10.3-25.4-16.1-31.8c-0.2-0.3-0.3-0.7-0.1-1
	c1.4-2.8,3.8-8.4,4.2-14.6c0.5-7.6-2-13.8-7.4-18.4c-13.5-11.5-36.6-6.3-47.9,0.7l-0.9,0.6l0,1.1c-0.1,6.9,2.5,8.1,6.7,9.1
	c0.9,0.2,1.9,0.5,3,0.9c1.9,0.7,2.4,2,2.5,3c0.1,1.6-0.8,3.4-2.2,4.2l-0.5,0.3c-3.9,2.2-7.6,4.3-7.3,9.8c0.1,1.5,0.1,2.9,0.1,4.4
	c0,0.2-0.1,0.4-0.2,0.5c-0.1,0.1-0.3,0.2-0.5,0.1c-11.3-1.9-25.8-4-30.2-2.7c-3.6,1-6.7,0.5-9.9,0c-1.4-0.2-2.8-0.4-4.2-0.5
	c-1.6-0.1-2.6-0.8-3.7-1.6c-1.7-1.2-3.9-2.7-7.6-1.5c-0.7,0.2-1.3,0.4-1.9,0.6c-3.3,1-5.8,1.8-8,5.9c0,0.1-0.1,0.1-0.1,0.1
	c0,0-0.1,0-0.2,0l-2.4-1.3c-0.7-0.4-1-1.3-0.6-2c1.6-2.9,1.8-5.1-2-7.5c-1.2-0.8-2.7-0.9-4.1-0.3c-3.7,1.6-6.7,7.7-7.3,10.7
	c-0.8,3.9,3,5.6,5.1,6.4c0.2,0.1,0.5,0.2,0.8,0.4c0.5,0.2,0.8,0.7,0.8,1.3c-0.4,2.8-4.2,6.1-14,8.1c-4.9,1-10.1,3.7-15.4,8
	c-5.1,3.4-8,1.7-13.2-1.4c-1.3-0.8-2.6-1.5-4.1-2.3c-8.7-4.5-16.2-6.5-30.4-4c-11.1,1.9-13.3,3.3-13.8,5.4c-0.5,2.1,1.4,3.5,2.5,4.3
	c3.4,2.5,30.2,11,38.5,10.5c1.2-0.1,2.7,0.1,3,1.1c0.6,1.7-1.1,5.7-5.1,8.5l-21.5,14.9c-0.7-0.7-1.5-1.3-2.4-2l0.5-0.6
	c0.5-0.6,0.7-1.4,0.5-2.2c-0.1-0.8-0.6-1.5-1.3-2c-0.3-0.2-5.3-3.3-5.3-3.3c-0.7-0.4-1.6-0.5-2.4-0.3c-0.8,0.2-1.4,0.7-1.7,1.4
	l-0.4,0.7c-0.9-0.4-1.9-0.8-2.8-1.2l0.3-0.7c0.3-0.7,0.2-1.5-0.1-2.3c-0.4-0.7-1-1.3-1.8-1.6c-0.3-0.1-0.6-0.2-1-0.3
	c-0.7-0.2-1.3-0.4-2-0.6l-3.1-0.7c-0.8-0.2-1.7,0-2.4,0.4c-0.7,0.4-1.1,1.1-1.2,1.9l-0.1,0.8c-1-0.1-2.1-0.3-3.1-0.3l0-0.8
	c0-0.8-0.2-1.5-0.8-2.1c-0.6-0.6-1.4-0.9-2.2-1l-3.2,0l-3.2,0.3c-0.8,0.1-1.6,0.5-2.1,1.1c-0.5,0.6-0.7,1.4-0.6,2.2l0.1,0.8
	c-1,0.2-2,0.4-3,0.6l-0.2-0.8c-0.2-0.8-0.7-1.4-1.4-1.8c-0.7-0.4-1.6-0.5-2.4-0.3c-0.3,0.1-0.6,0.2-1,0.3c-0.7,0.2-1.4,0.4-2.1,0.7
	l-2.9,1.1c-0.8,0.3-1.4,0.9-1.7,1.7c-0.3,0.7-0.3,1.5,0,2.3l0.4,0.8c-0.9,0.5-1.8,0.9-2.7,1.4l-0.4-0.7c-0.4-0.7-1.1-1.1-1.8-1.3
	c-0.8-0.2-1.6,0-2.3,0.4c-1.5,0.9-2.8,1.9-4,2.9c-0.4,0.3-0.8,0.6-1.1,0.9c-0.7,0.5-1.1,1.3-1.2,2.1c-0.1,0.8,0.2,1.6,0.7,2.2
	l0.6,0.7c-0.7,0.7-1.5,1.4-2.2,2.2l-0.6-0.5c-0.6-0.5-1.3-0.8-2.1-0.7c-0.8,0.1-1.6,0.4-2.1,1.1l-1,1.2l-2.7,3.9
	c-0.5,0.7-0.7,1.5-0.5,2.3c0.2,0.8,0.6,1.5,1.3,2l0.7,0.4c-0.5,0.9-1,1.8-1.4,2.7l-0.7-0.3c-0.7-0.3-1.5-0.3-2.2,0
	c-0.8,0.3-1.4,0.9-1.7,1.7l-0.2,0.5c-0.1,0.3-0.3,0.7-0.4,1l-1.4,4.4c-0.3,0.8-0.2,1.7,0.2,2.4c0.4,0.7,1.1,1.3,1.9,1.5l0.8,0.2
	c-0.2,1-0.4,2-0.6,3l-0.8-0.1c-0.8-0.1-1.5,0.1-2.2,0.6c-0.6,0.5-1.1,1.3-1.1,2.1l-0.2,1.6c0,0.4,0,0.8,0,1.2c0,0.2,0,0.3,0,0.5l0,3
	c0,0.8,0.3,1.7,0.9,2.2c0.6,0.6,1.4,0.9,2.2,0.8l0.8,0c0.1,1,0.2,2.1,0.3,3.1l-0.8,0.1c-0.8,0.1-1.4,0.6-1.9,1.2
	c-0.5,0.7-0.6,1.5-0.5,2.3l0.3,1.5l1.3,4.6c0.2,0.8,0.8,1.5,1.5,1.9c0.7,0.4,1.6,0.4,2.4,0.2l0.8-0.3c0.4,1,0.8,1.9,1.2,2.8
	l-0.7,0.4c-1.4,0.8-2,2.6-1.3,4c0.5,1.1,2.9,4.7,3.4,5.5l0.1,0.1c1,1.3,2.9,1.6,4.2,0.6l0.6-0.5c0.7,0.8,1.3,1.6,2,2.3l-0.6,0.6
	c-1.2,1.1-1.2,3,0,4.3c0.7,0.7,4.3,3.8,4.9,4.2c1.4,1,3.3,0.7,4.2-0.6l0.5-0.6c0.9,0.6,1.7,1.1,2.6,1.6l-0.4,0.7
	c-0.8,1.4-0.2,3.2,1.2,4.1l5.8,2.5l0.2,0.1c1.6,0.5,3.3-0.3,3.8-1.8l0.3-0.8c1,0.3,2.1,0.6,3,0.8l-0.2,0.8c-0.3,1.6,0.8,3.2,2.4,3.5
	c1.1,0.2,5.3,0.7,6.4,0.7c1.7,0,3.1-1.3,3.1-2.9l0-0.8c1,0,2.1-0.1,3.1-0.1l0.1,0.8c0.2,1.6,1.7,2.8,3.4,2.6
	c1.1-0.1,5.6-1.1,6.2-1.2l0.1,0c1.6-0.5,2.6-2.1,2.1-3.7l-0.2-0.8c1-0.3,2-0.7,2.9-1l0.3,0.8c0.3,0.7,0.9,1.3,1.7,1.6
	c0.8,0.3,1.6,0.3,2.5-0.1c1.2-0.6,5-2.7,5.5-3c0.7-0.4,1.2-1.1,1.4-1.9c0.2-0.8,0-1.6-0.4-2.2l-0.4-0.7c0.8-0.6,1.7-1.2,2.5-1.8
	l0.6,0.7c0.5,0.6,1.3,1,2.1,1c0.8,0,1.6-0.3,2.2-0.9c0.4-0.4,0.8-0.8,1.2-1.1c1.1-1,2.3-2.1,3.2-3.3c0.5-0.6,0.8-1.4,0.8-2.3
	c-0.1-0.8-0.4-1.5-1-2l-0.6-0.5c0.6-0.8,1.3-1.6,1.8-2.5l0.7,0.5c0.7,0.4,1.5,0.6,2.2,0.4c0.8-0.2,1.5-0.7,1.9-1.5l0.6-1
	c0.8-1.5,1.7-3,2.3-4.6c0.3-0.8,0.4-1.6,0.1-2.4c-0.3-0.7-0.8-1.3-1.6-1.6l-0.7-0.3c0.4-1,0.7-2.1,1-2.9l0.9,0.2
	c0.8,0.2,1.6,0.1,2.3-0.3c0.7-0.4,1.2-1.1,1.4-2l1.1-6l0-0.1c0.1-0.8-0.1-1.7-0.7-2.3c-0.5-0.6-1.2-1-2-1.1l-0.8-0.1
	c0.1-1,0.1-2.1,0.1-3.1l0.8,0c0.8,0,1.5-0.4,2.1-1c0.5-0.6,0.8-1.4,0.7-2.3c-0.1-0.5-0.1-1.1-0.1-1.6c-0.1-1.5-0.3-3.1-0.6-4.7
	c-0.2-0.8-0.7-3.3-0.1-3.8c8-5.5,16.6-11.5,23.3-16.1c0.3-0.2,0.5-0.1,0.6,0c0.1,0.1,0.3,0.3,0.3,0.6c-0.6,6.7-1.3,15.5-1.3,19.3
	c0,3.8,2,6.1,3.8,8c2.5,2.8,4.9,5.5,3.7,13.3c-0.4,2.5-0.9,4.7-1.4,6.9c-2.2,10-3.8,17.3,10,27.4c8.2,6,19.6,8.6,27.9,10.5
	c3,0.7,6.7,1.5,9,2.4c1,0.4,1.7,1.7,1.6,2c-1.2,4.4,3.6,7.2,7.1,9.4c2.4,1.4,5.3,3.1,4.8,4.3c-1.3,3.3-1.3,5.7,0.1,8l-0.6,2
	c-0.3,0.8-0.2,1.7,0.2,2.4c0.4,0.7,1.1,1.3,1.9,1.5l0.8,0.2c-0.2,1-0.4,2-0.6,3l-0.8-0.1c-0.8-0.1-1.5,0.1-2.2,0.6
	c-0.6,0.5-1.1,1.3-1.1,2.1l-0.3,6.3c0,0.8,0.3,1.7,0.9,2.2c0.6,0.6,1.4,0.9,2.2,0.8l0.8,0c0.1,1,0.2,2.1,0.4,3.1l-0.8,0.1
	c-0.8,0.1-1.4,0.6-1.9,1.2c-0.5,0.7-0.6,1.5-0.5,2.3l1.6,6.1c0.2,0.8,0.8,1.5,1.5,1.9c0.7,0.4,1.6,0.4,2.4,0.2l0.8-0.3
	c0.4,1,0.8,1.9,1.2,2.8L289,469c-1.4,0.8-2,2.6-1.3,4c0.5,1.1,2.9,4.7,3.5,5.6c1,1.3,2.9,1.6,4.2,0.6l0.6-0.5c0.7,0.8,1.3,1.6,2,2.3
	l-0.6,0.5c-1.2,1.1-1.2,3,0,4.3c0.7,0.7,4.3,3.8,4.9,4.2c1.4,1,3.3,0.7,4.2-0.6l0.5-0.6c0.9,0.6,1.7,1.1,2.6,1.6l-0.4,0.7
	c-0.8,1.4-0.2,3.2,1.3,4.1l5.8,2.5l0.2,0.1c1.6,0.5,3.3-0.3,3.8-1.8l0.2-0.7c1,0.3,2,0.6,3,0.8l-0.1,0.8c-0.3,1.6,0.8,3.2,2.4,3.5
	c1.1,0.2,5.3,0.7,6.4,0.7c0,0,0,0,0,0c1.6,0,3-1.3,3.1-2.9l0-0.8c1,0,2.1-0.1,3.1-0.1l0.1,0.8c0.2,1.6,1.7,2.8,3.4,2.6
	c1.1-0.1,5.6-1.1,6.2-1.2l0.1,0c1.6-0.5,2.6-2.1,2.1-3.7l-0.2-0.8c1-0.3,2-0.7,2.9-1l0.3,0.8c0.3,0.7,0.9,1.3,1.7,1.6
	c0.8,0.3,1.6,0.3,2.5-0.1c1.2-0.6,5-2.7,5.5-3c0.7-0.4,1.2-1.2,1.4-1.9c0.2-0.8,0-1.5-0.4-2.2l-0.4-0.7c0.8-0.6,1.7-1.2,2.5-1.8
	l0.6,0.7c0.5,0.6,1.3,1,2.1,1c0.8,0,1.6-0.3,2.2-0.9c0.4-0.4,0.8-0.8,1.2-1.1c1.1-1,2.3-2.1,3.2-3.3c0.5-0.6,0.8-1.4,0.8-2.3
	c-0.1-0.8-0.4-1.5-1-2l-0.6-0.5c0.6-0.8,1.3-1.6,1.8-2.5l0.7,0.5c0.7,0.4,1.5,0.6,2.2,0.4c0.8-0.2,1.5-0.7,1.9-1.5l0.6-1
	c0.8-1.5,1.7-3,2.3-4.6c0.3-0.8,0.4-1.6,0.1-2.4c-0.3-0.7-0.8-1.3-1.6-1.6l-0.7-0.3c0.4-1,0.7-2,1-2.9l0.8,0.2
	c0.8,0.2,1.6,0.1,2.2-0.3c0.7-0.4,1.2-1.1,1.4-2l1.1-6l0-0.1c0.1-0.8-0.1-1.7-0.7-2.3c-0.5-0.6-1.2-1-2-1.1l-0.8-0.1
	c0.1-1,0.1-2.1,0.1-3.1l0.8,0c0.8,0,1.5-0.4,2.1-1c0.5-0.6,0.8-1.4,0.7-2.3c-0.1-0.5-0.1-1-0.1-1.6c-0.1-1.5-0.3-3.1-0.6-4.7
	c-0.2-0.8-0.6-1.5-1.3-2c-0.7-0.4-1.4-0.6-2.2-0.5l-0.8,0.1c-0.2-1-0.5-2-0.8-3l0.8-0.3c0.7-0.3,1.3-0.8,1.7-1.5
	c0.3-0.7,0.4-1.6,0-2.5l-2.5-5.6l-0.1-0.1c-0.4-0.7-1-1.3-1.8-1.5c-0.8-0.2-1.6-0.2-2.2,0.2l-0.7,0.4c-0.5-0.9-1.1-1.8-1.7-2.6
	l0.6-0.5c0.6-0.5,1.1-1.2,1.2-1.9c0.1-0.8-0.1-1.7-0.7-2.4l-4-4.6l-0.1-0.1c-0.6-0.6-1.4-1-2.2-1c-0.8,0-1.5,0.3-2.1,0.9l-0.6,0.6
	c-0.8-0.7-1.5-1.4-2.4-2l0.5-0.6c0.5-0.6,0.7-1.4,0.5-2.2c-0.1-0.8-0.6-1.5-1.3-2c-0.3-0.2-0.6-0.4-0.8-0.6
	c-0.6-0.4-1.1-0.8-1.8-1.2l-2.7-1.5c-0.7-0.4-1.6-0.5-2.4-0.3c-0.8,0.2-1.4,0.7-1.7,1.4l-0.4,0.7c-0.9-0.4-1.9-0.8-2.8-1.2l0.3-0.7
	c0.3-0.7,0.2-1.5-0.1-2.3c-0.4-0.7-1-1.3-1.8-1.6c-0.3-0.1-0.6-0.2-0.9-0.3c-0.7-0.2-1.4-0.4-2-0.6l-3.1-0.7c-0.8-0.2-1.7,0-2.4,0.4
	c-0.7,0.4-1.1,1.1-1.2,1.9l-0.1,0.8c-1-0.1-2.1-0.3-3.1-0.3l0-0.8c0-0.8-0.2-1.5-0.8-2.1c-0.6-0.6-1.4-0.9-2.2-1l-3.2,0l-3.2,0.3
	c-0.8,0.1-1.6,0.5-2.1,1.1c-0.5,0.6-0.7,1.4-0.6,2.2l0.1,0.8c-1,0.2-2,0.4-3,0.6l-0.2-0.7c-0.2-0.8-0.7-1.4-1.4-1.8
	c-0.7-0.4-1.6-0.5-2.4-0.3c-0.3,0.1-0.6,0.2-1,0.3c-0.7,0.2-1.4,0.4-2.1,0.7l-2.9,1.1c-0.8,0.3-1.4,0.9-1.7,1.7
	c-0.3,0.7-3.1,1.7-3.4-0.8c-0.5-4.4,1.4-11.3,4.3-14.4c2.9-3.2,7.3-1.7,14.3,1.2c0.8,0.3,1.5,0.6,2.3,1c2.3,0.9,4.4,2,6.2,2.8
	c3.8,1.9,6.9,3.4,9.8,2.6c1.4-0.4,2.4-1,3.4-1.7c1.7-1.1,3.5-2.2,8-2.4c7.7-0.4,20.1,0,27.5,0.2c3.7,0.1,6.4-0.7,8-2.5
	c0.3-0.3,0.5-0.6,0.7-0.9c1.3-2.2,4.1-3,6.4-2c14.7,6.1,20.5,6.9,24.8,1.9l0.7-0.8L425.2,382z M158.6,373.1
	c-6.7,4.5-15.1,6.5-23.5,4.8c-9-1.8-16.7-7.5-21.2-15.5c-4.4-8-5.1-17.6-1.8-26.2c4.6-12.2,16.3-20,29-20c1.7,0,3.4,0.1,5.2,0.4
	c3.3,0.6,6.5,1.6,9.4,3.2c1.4,0.8,1.6,2.8,0.2,3.7l-5.9,4.1c-1,0.7-2.2,0.9-3.3,0.5c-0.1,0-0.2-0.1-0.3-0.1
	c-12.4-3.4-25.3,5.7-25.3,19.6c0,1.7,0.2,3.3,0.7,4.9c2,7.1,7.4,12.3,14.2,14.2c2.7,0.7,5.6,0.9,8.4,0.5c0.4-0.1,1.6,0.3,1.8,0.5
	c1,1.6,3.4,5.5,9.2,2.2c0.3-0.2,0.6-0.4,1-0.6C158.7,367.8,161,371.4,158.6,373.1z M269.1,267l-0.6-0.1c-2-0.4-1.9-1.1-1.9-1.5l0,0
	c0.3-2.8,0.8-3.3,2.1-3.4c0.9-0.1,1.9-0.2,2.8-0.3c1.9-0.2,3.8-0.4,5.7-0.5c0,0,0,0,0,0c0.3,0,0.8,0.2,1.2,0.4
	c1,0.7,2.3,1.5,3.9,1.2c0.9-0.2,1.7-0.7,2.4-1.6c0.2-0.2,1-0.6,1.3-0.6c0.8,0.2,1.7,0.3,2.5,0.4c2.7,0.4,5,0.7,6.8,2.6
	c1.7,1.8,4.4,2.7,6.3,3.2c2.1,0.5,4.2,0.8,6.2,1.2c2.4,0.4,4.7,0.8,6.9,1.4c2.5,0.7,5,1.5,7.5,2.3c1.2,0.4,2.1,2.8,0.2,2.9
	c-3.8,0.2-7.8,0.2-11.6,0.3c-3.1,0-6.2,0-9.3,0.2c-1.2,0-2.2,0.6-3,1.1c-0.3,0.2-0.8,0.4-1,0.5c-2.1-0.5-4.2-0.8-6.3-1.1
	c-6.2-0.9-12.1-1.7-16.6-6.4C273.1,267.7,270.9,267.3,269.1,267z M322,462.1c2.3,2,4.9,3.4,7.8,4.2c4.5,1.2,9.2,0.9,13.4-0.9
	c5.7-2.5,9.8-7.3,11.3-13.2c2-7.4-0.4-15.2-6-20.2l0,0l-15.9-13c-1.2-1-0.6-3,1-3.1c3.8-0.2,7.6,0.3,11.3,1.5
	c15,4.9,23.9,20.2,20.8,35.6c-1.7,8.6-6.8,15.8-14.2,20.4c-7.4,4.6-16.1,5.9-24.5,3.6c-12.2-3.3-21-13.5-22.7-25.7
	c-0.2-1.5,1.5-2.5,2.7-1.5L322,462.1z M352.9,310c-0.2,0.1-0.7,0.4-1.2,0l0,0c-0.3-0.3-0.6-0.7-0.9-1.2c-2.8-4.7-7.6-7.5-13.1-7.7
	c-5.8-0.2-11.3,2.5-14.7,7.3c-1.2,1.7-1.8,1.5-3.5,1.1c-0.6-0.1-1.2-0.3-2-0.3c-2.2-0.1-3.6,0.4-4.2,1.6c-0.6,1.3-1.4,1.3-3.8,1.4
	c-0.4,0-0.8,0-1.2,0.1c-0.7,0.1-1.4,0.1-2.1,0.2c-1.9,0.1-3.9,0.3-5.9,0.8c-1.1,0.3-2.2,0.7-3.6,1.3c-1.7,0.8-3.7,0.3-4.9-1
	l-0.1-0.2c-2.4-2.7-4.8-5.5-7.3-8.2c-2.3-2.5-4.5-5-6.8-7.5c-1.1-1.2-2.2-2.4-3.3-3.6c-0.3-0.3-0.6-0.6-0.9-0.9
	c-0.1-0.2-0.2-0.5-0.3-0.7c0,0,0,0,0,0c0-1.5,1.7-2.3,2.9-1.4c0.3,0.2,0.6,0.4,1,0.6c2.2,1.3,4.9,1.7,7.2,2c0.4,0.1,0.8,0.1,1.2,0.2
	c1.7,0.3,3.9-1.4,4.3-3c0.4-1.5,1-1.7,3.4-1.7c0.6,0,1.3,0,2-0.1c1.7-0.2,2.5,0.3,3.2,2c1.9,4.6,8.1,6.3,13.1,5.9
	c5.3-0.4,10.7-0.5,16-0.7c2.2,0,4.4-0.1,6.7-0.2c1.2,0,2.4-0.1,3.6-0.1c2,0,4-0.1,6-0.2c3.1-0.1,5.5,1.7,6.4,5.1
	c0.5,1.9,1.3,3.6,2.1,5.2c0.5,0.9,0.9,1.8,1.3,2.7l0,0.1C353.5,309.5,353.1,309.9,352.9,310z"/>
<path d="M403.7,369.3c-12.7-6.7-34.2-12.8-37.2-13.8c-3-1-9-2.4-7.7-5.8c28.2,1.1,28.3-8.5,31.8-17.5c3.5-9,1.9-15.9,1.4-18.2
	c-0.5-2.3-1.5-4.8,0.8-6.7c2.3-2-1.5-14.9-4-26.3c-2.2-10.5-10.1-24.8-15.6-30.9c-0.8-0.9-1-2.2-0.4-3.2c2.9-5.8,8.7-20.9-2.7-30.5
	c-12.9-10.9-35-5.7-45.6,0.9c-0.2,7.4,2.9,6.1,8.3,8.1c5.4,1.9,4.6,8.6,0.6,10.8c-3.9,2.3-7,3.8-6.7,8.2c0.1,1.7,0.1,3.2,0.1,4.5
	c0,1.6-1.5,2.9-3.1,2.6c-7.2-1.2-24.9-4-29.3-2.8c-5.6,1.6-9.9-0.1-14.8-0.5c-4.9-0.4-5.6-4.8-10.5-3.2c-4.3,1.4-6.6,1.5-8.7,5.5
	c-0.6,1.1-2,1.6-3.1,1l-5.6-3c3.1-4.9,3.8-5.8,0.6-7.8c-3.2-2.1-7.6,5.3-8.4,9.1c-0.8,3.8,6.3,4.1,6.7,6.1c0.4,2,0.3,8.4-15.5,11.7
	c-5.2,1.1-10.2,4.1-14.6,7.6c0,0,0,0,0,0c-7.6,5.1-11.8,0.4-19.5-3.6c-7.7-4-14.7-6.3-29.1-3.8c-14.4,2.5-13.3,4-10.5,6.1
	c2.8,2.1,29,10.6,37.2,10.1c8.2-0.5,5.9,8.5-0.8,13.2l-21.5,14.9c-0.8,0.5-1.8,0.5-2.5-0.2c-1-0.9-2-1.8-3.1-2.6
	c-0.4-0.3-0.5-0.9-0.2-1.3l1.1-1.5c0.3-0.4,0.2-1-0.3-1.4c-0.8-0.6-1.7-1.2-2.5-1.7l-2.7-1.5c-0.5-0.3-1.1-0.1-1.3,0.3l-0.9,1.7
	c-0.2,0.4-0.8,0.6-1.2,0.4c-1.5-0.7-3-1.4-4.6-2c-0.5-0.2-0.7-0.7-0.6-1.2l0.6-1.8c0.2-0.5-0.1-1-0.7-1.2c-1-0.3-1.9-0.6-2.9-0.9
	l-3-0.7c-0.6-0.1-1.1,0.2-1.2,0.7l-0.3,1.8c-0.1,0.5-0.6,0.8-1.1,0.7c-1.7-0.3-3.3-0.5-5-0.6c-0.5,0-0.9-0.4-0.9-1l0.1-1.9
	c0-0.5-0.4-1-1-1l-3.1,0l-3.1,0.3c-0.6,0.1-1,0.5-0.9,1l0.2,1.9c0.1,0.5-0.3,0.9-0.8,1c-1.7,0.2-3.3,0.6-4.9,1
	c-0.5,0.1-1-0.2-1.1-0.7l-0.5-1.8c-0.1-0.5-0.7-0.8-1.2-0.6c-1,0.3-2,0.5-2.9,0.9l-2.8,1.1c-0.5,0.2-0.8,0.8-0.6,1.2l0.6,1.4
	c0.3,0.7,0,1.4-0.6,1.7c-1.3,0.6-2.5,1.3-3.8,2c-0.6,0.4-1.4,0.2-1.8-0.4l-0.8-1.3c-0.3-0.4-0.9-0.6-1.4-0.2c-1.8,1-3.3,2.4-4.9,3.6
	c-0.5,0.4-0.5,1-0.2,1.4l1,1.2c0.5,0.5,0.4,1.4-0.1,1.8c-1,1-2.1,2-3,3c-0.5,0.5-1.3,0.6-1.8,0.1l-1.1-1c-0.4-0.3-1-0.3-1.4,0.2
	l-1,1.2l-0.9,1.2l-1.8,2.5c-0.3,0.5-0.2,1.1,0.3,1.4l1.3,0.8c0.6,0.4,0.8,1.2,0.4,1.8c-0.7,1.2-1.4,2.5-2,3.8
	c-0.3,0.6-1.1,0.9-1.7,0.7l-1.3-0.6c-0.5-0.2-1.1,0-1.3,0.6c-0.2,0.5-0.4,0.9-0.6,1.4l-0.5,1.5l-0.9,2.9c-0.2,0.5,0.1,1.1,0.6,1.2
	l1.7,0.5c0.5,0.1,0.9,0.7,0.7,1.3c-0.4,1.6-0.7,3.1-0.9,4.7c-0.1,0.6-0.6,1-1.1,0.9l-1.7-0.2c-0.5-0.1-1,0.3-1.1,0.9l-0.2,1.5
	c0,0.5,0,1,0,1.5l0,3.1c0,0.6,0.4,1,1,1l1.8-0.1c0.6,0,1,0.4,1.1,1c0.1,1.6,0.3,3.2,0.5,4.8c0.1,0.6-0.3,1.1-0.8,1.2l-1.7,0.3
	c-0.5,0.1-0.8,0.6-0.7,1.2l0.3,1.5l0.4,1.5l0.9,2.9c0.1,0.6,0.8,0.8,1.2,0.7l1.7-0.6c0.5-0.2,1.1,0.1,1.3,0.6c0.6,1.5,1.2,3,1.9,4.4
	c0.3,0.5,0.1,1.1-0.4,1.4l-1.5,0.8c-0.5,0.2-0.6,0.9-0.4,1.4c0.4,0.9,2.7,4.4,3.2,5.2c0.4,0.5,1,0.6,1.4,0.3l1.7-1.3
	c0.3-0.2,0.7-0.2,0.9,0.1c1.1,1.5,2.3,2.9,3.6,4.2c0.2,0.2,0.2,0.6,0,0.9l-1.5,1.5c-0.4,0.4-0.4,1,0,1.4c0.7,0.7,4.2,3.7,4.7,4
	c0.5,0.3,1.1,0.3,1.4-0.2l1.3-1.7c0.2-0.3,0.6-0.3,0.9-0.1c1.5,1.1,3.1,2.1,4.7,3c0.3,0.2,0.4,0.5,0.3,0.9l-1,1.9
	c-0.2,0.5,0,1.1,0.5,1.3l5.6,2.4c0.5,0.2,1.1-0.1,1.3-0.6l0.7-2c0.1-0.3,0.5-0.5,0.8-0.4c1.5,0.5,4.2,1.1,5.4,1.4
	c0.3,0.1,0.5,0.4,0.5,0.7l-0.4,2.1c-0.1,0.5,0.3,1,0.8,1.1c1,0.2,5.1,0.7,6.1,0.7c0.6,0,1.1-0.4,1.1-0.9l0.1-1.8c0-0.6,0.5-1,1-1
	c1.6,0,3.2-0.1,4.8-0.2c0.6-0.1,1.1,0.3,1.1,0.9l0.2,1.8c0.1,0.5,0.6,0.9,1.1,0.8c1-0.1,6-1.2,6-1.2c0.6-0.2,0.9-0.7,0.7-1.2
	l-0.5-1.7c-0.1-0.5,0.2-1.1,0.7-1.3c1.5-0.5,3.1-1,4.5-1.6c0.5-0.2,1.1,0,1.3,0.5l0.7,1.7c0.2,0.5,0.8,0.7,1.3,0.5
	c0,0,5-2.6,5.4-2.9c0.5-0.3,0.6-0.9,0.4-1.4l-0.9-1.4c-0.3-0.5-0.2-1.2,0.3-1.6c1.3-0.9,2.5-1.8,3.7-2.7c0.5-0.4,1.2-0.3,1.6,0.1
	l1.1,1.3c0.3,0.4,1,0.4,1.4,0c1.5-1.4,3-2.7,4.3-4.4c0.4-0.4,0.4-1.1,0-1.4l-1.3-1.1c-0.5-0.4-0.5-1.1-0.1-1.6
	c1-1.2,1.9-2.4,2.7-3.7c0.3-0.5,1-0.7,1.6-0.3l1.4,0.9c0.4,0.3,1,0.1,1.3-0.4c1-1.8,2.1-3.5,2.8-5.4c0.2-0.5,0-1.1-0.5-1.3l-1.6-0.7
	c-0.5-0.2-0.7-0.8-0.5-1.3c0.5-1.4,1.2-3.5,1.6-4.7c0.2-0.5,0.7-0.8,1.2-0.7l1.8,0.5c0.5,0.1,1-0.2,1.1-0.8l1.1-6
	c0.1-0.6-0.3-1.1-0.8-1.1l-1.8-0.2c-0.5-0.1-0.9-0.5-0.9-1.1c0.1-1.6,0.2-3.3,0.2-4.9c0-0.5,0.4-1,1-1l1.8-0.1
	c0.5,0,0.9-0.5,0.9-1.1c-0.2-2-0.3-4.1-0.7-6.1c-0.1-0.6-0.6-0.9-1.1-0.8l-1.9,0.4c-0.4,0.1-0.8-0.2-0.9-0.6l0,0
	c-0.2-0.8,0.1-1.6,0.8-2c9-6.3,19.4-13.4,27.3-18.9c1.8-1.3,4.3,0.2,4.1,2.4c-0.7,7.5-1.3,15.5-1.3,19.1c0,7.6,9.8,7.1,7.4,21.6
	c-2.4,14.6-7.6,21,7.9,32.3c15.5,11.3,42.3,10.1,39.4,16.5c-2.8,6.4,14,8.8,11.6,14.6c-1.3,3.2-1,5,0.5,6.9l0,0.1l-0.9,2.9
	c-0.2,0.5,0.1,1.1,0.6,1.2l1.9,0.5c0.4,0.1,0.7,0.6,0.6,1c-0.4,1.7-0.7,3.4-1,5.1c-0.1,0.4-0.5,0.8-0.9,0.7l-1.9-0.2
	c-0.5-0.1-1,0.3-1.1,0.9l-0.2,6.1c0,0.6,0.4,1,1,1l2-0.1c0.5,0,0.8,0.3,0.9,0.8c0.1,1.7,0.3,3.5,0.6,5.2c0.1,0.4-0.2,0.9-0.7,1
	l-1.9,0.4c-0.5,0.1-0.8,0.6-0.7,1.2l1.6,5.9c0.1,0.6,0.8,0.8,1.2,0.7l1.9-0.7c0.4-0.2,0.9,0.1,1,0.5c0.6,1.6,1.3,3.2,2.1,4.8
	c0.2,0.4,0.1,0.9-0.3,1.1l-1.7,0.9c-0.5,0.2-0.6,0.9-0.4,1.4c0.4,0.9,2.7,4.4,3.2,5.2c0.4,0.5,1,0.6,1.4,0.3l1.6-1.2
	c0.4-0.3,0.9-0.2,1.1,0.2c1.1,1.4,2.2,2.7,3.4,4c0.3,0.3,0.3,0.8,0,1.2l-1.4,1.4c-0.4,0.4-0.4,1,0,1.4c0.7,0.7,4.2,3.7,4.7,4
	c0.5,0.3,1.1,0.3,1.4-0.2l1-1.4c0.3-0.4,1-0.5,1.4-0.2c1.3,0.9,2.7,1.8,4.1,2.6c0.5,0.3,0.7,0.9,0.4,1.4l-0.8,1.6
	c-0.2,0.5,0,1.1,0.5,1.3l5.6,2.4c0.5,0.2,1.1-0.1,1.3-0.6l0.6-1.6c0.2-0.5,0.7-0.8,1.3-0.6c1.3,0.4,2.6,0.8,4,1.1
	c0.2,0.1,0.5,0.1,0.7,0.2c0.5,0.1,0.9,0.6,0.8,1.2l-0.3,1.7c-0.1,0.5,0.3,1,0.8,1.1c1,0.2,5.1,0.7,6.1,0.7c0.6,0,1.1-0.4,1.1-0.9
	l0.1-1.8c0-0.6,0.5-1,1-1c1.6,0,3.2-0.1,4.8-0.2c0.6-0.1,1,0.3,1.1,0.9l0.2,1.8c0.1,0.5,0.6,0.9,1.1,0.8c1-0.1,6-1.2,6-1.2
	c0.6-0.2,0.9-0.7,0.7-1.2l-0.5-1.7c-0.2-0.6,0.2-1.1,0.7-1.3c1.5-0.5,3-1,4.5-1.6c0.5-0.2,1.1,0,1.4,0.6l0.7,1.7
	c0.2,0.5,0.8,0.7,1.3,0.5c0,0,5-2.6,5.4-2.9c0.5-0.3,0.6-0.9,0.4-1.4l-1-1.5c-0.3-0.5-0.2-1.1,0.3-1.4c1.3-0.9,2.6-1.8,3.8-2.8
	c0.4-0.4,1.1-0.3,1.5,0.1l1.2,1.4c0.3,0.4,1,0.4,1.4,0c1.5-1.4,3-2.7,4.3-4.4c0.4-0.4,0.4-1.1,0-1.4l-1.3-1.1
	c-0.4-0.4-0.5-1-0.1-1.5c1-1.2,1.9-2.5,2.8-3.8c0.3-0.5,1-0.6,1.4-0.3l1.5,1c0.4,0.3,1,0.1,1.3-0.4c1-1.8,2.1-3.5,2.8-5.4
	c0.2-0.5,0-1.1-0.5-1.3l-1.6-0.7c-0.5-0.2-0.8-0.8-0.6-1.4c0.5-1.2,0.9-2.4,1.3-3.7c0.1-0.2,0.1-0.3,0.2-0.5c0.2-0.7,1-1.1,1.7-0.9
	l1.4,0.4c0.5,0.1,1-0.2,1.1-0.8l1.1-6c0.1-0.6-0.3-1.1-0.8-1.1l-1.4-0.2c-0.7-0.1-1.3-0.7-1.2-1.5c0.1-1.4,0.2-2.8,0.1-4.1
	c0-0.8,0.6-1.4,1.3-1.4l1.5-0.1c0.5,0,0.9-0.5,0.9-1.1c-0.2-2-0.3-4.1-0.7-6.1c-0.1-0.6-0.6-0.9-1.1-0.8l-1.4,0.3
	c-0.7,0.1-1.4-0.3-1.6-1.1c-0.3-1.3-0.7-2.7-1.1-4c-0.2-0.7,0.1-1.5,0.9-1.7l1.4-0.5c0.5-0.2,0.7-0.7,0.5-1.3l-2.5-5.6
	c-0.3-0.5-0.8-0.7-1.3-0.5l-1.6,0.8c-0.5,0.3-1.1,0.1-1.3-0.4c-0.8-1.4-1.7-2.8-2.6-4.1c-0.3-0.4-0.2-1.1,0.2-1.4l1.4-1.1
	c0.4-0.3,0.5-0.9,0.1-1.4l-4-4.6c-0.4-0.4-1-0.4-1.4-0.1l-1.3,1.3c-0.4,0.4-1,0.4-1.4,0c-1.2-1.1-2.4-2.2-3.7-3.2
	c-0.4-0.3-0.5-0.9-0.2-1.4l1.1-1.4c0.3-0.4,0.2-1-0.3-1.4c-0.8-0.6-1.7-1.2-2.5-1.7l-2.7-1.5c-0.5-0.3-1.1-0.1-1.3,0.3l-0.8,1.6
	c-0.3,0.5-0.8,0.7-1.3,0.4c-1.4-0.7-2.9-1.4-4.5-1.9c-0.5-0.2-0.8-0.8-0.6-1.3l0.6-1.7c0.2-0.5-0.1-1-0.7-1.2
	c-1-0.3-1.9-0.6-2.9-0.9l-3-0.7c-0.6-0.1-1.1,0.2-1.2,0.7l-0.3,1.6c-0.1,0.6-0.7,1-1.3,0.9c-1.5-0.2-3.1-0.4-4.6-0.5
	c-0.6,0-1.1-0.6-1.1-1.2l0.1-1.7c0-0.5-0.4-1-1-1l-3.1,0l-3.1,0.3c-0.6,0.1-1,0.5-0.9,1l0.2,1.6c0.1,0.6-0.4,1.2-1,1.3
	c-1.5,0.2-3,0.5-4.5,0.9c-0.6,0.1-1.2-0.2-1.4-0.8l-0.4-1.6c-0.1-0.5-0.7-0.8-1.2-0.6c-1,0.3-2,0.5-2.9,0.9l-2.8,1.1
	c-0.5,0.2-0.8,0.8-0.6,1.2l0.7,1.5c0.3,0.6,0,1.2-0.6,1.5c-0.7,0.3-1.4,0.7-2.1,1c0,0,0,0,0,0c-0.2,0.1-0.4,0.2-0.5,0.3l-2.6-2.2
	c0,0,0,0,0,0c-4.2-2.7-1.9-15.1,2.7-20.2c4.6-5.1,11.7-1.3,18.9,1.6c7.1,2.9,11.4,6.3,14.7,5.4c3.2-0.9,4.2-3.8,11.8-4.1
	c7.6-0.4,19.5,0,27.6,0.2c6.1,0.2,7.9-2.6,7.5-5.9c-0.2-1.4,1.2-2.4,2.4-1.9c19.5,8.6,24.7,9.3,28.4,5
	C422.2,378.2,416.4,376,403.7,369.3z M172.7,357.9c-5.3,15.7-21.7,25.2-37.9,22c-20.1-4-31.8-25.1-24.5-44.4
	c5.6-14.7,21-23.5,36.4-20.9c5.1,0.9,9.7,2.8,13.6,5.5c1,0.7,0.9,2.1,0,2.8l-11.5,7.9c-0.9-0.4-1.8-0.8-2.8-1
	c-9.6-2.6-19.5,3.1-22.1,12.7s3.1,19.5,12.7,22.1c3,0.8,6,0.8,8.9,0.1c0.1,0,0.2-0.1,0.2-0.1c2.7-0.5,2.2,6.9,8.6,3.3
	c6.6-3.8,10.3-6.2,13.2-8.1c2.9-1.9-2.7-7.5,1.8-10.7c0.4-0.3,1.2-0.8,2.3-1.6c1.2-0.8,2.8,0.1,2.7,1.5
	C174.2,352,173.7,354.9,172.7,357.9z M264.8,265.1c0.3-2.3,0.8-4.9,3.9-5.1c2.8-0.2,5.7-0.6,8.5-0.7c0.8,0,1.8,0.3,2.5,0.8
	c1.5,1.1,2.7,1.4,3.8-0.5c0.3-0.5,1.2-1.2,1.6-1.1c3.9,1.1,8.4,0.4,11.6,3.9c1.3,1.3,3.4,2.2,5.3,2.6c4.4,1,8.9,1.4,13.2,2.6
	c5.2,1.4,10.3,3.2,15.4,4.9c1,0.3,1.9,0.8,2.8,1.1c0,0.4,0,0.8,0,1.1c-3.7,0.7-7.3,1.8-11,2c-7,0.4-14,0.2-21,0.4
	c-1.5,0.1-3.1,1.8-4.4,1.5c-8.3-1.8-17.4-1.1-24-8.1c-1.1-1.1-3.2-1.4-4.9-1.7C266.1,268.4,264.5,267.3,264.8,265.1z M323.4,460.6
	c2,1.7,4.4,3.1,7.2,3.8c9.6,2.6,19.5-3.1,22.1-12.7c2-7.2-0.8-14.6-6.3-18.9l0,0l-18.5-15.2c-1.1-0.9-0.7-2.7,0.8-3
	c5.5-1.1,11.3-0.9,17.1,1c15.8,5.2,25.4,21.7,22.1,38c-3.8,19-22.8,30.5-41.2,25.5c-14.9-4-24.6-17.5-24.5-32.2
	c0-1.5,1.7-2.2,2.8-1.3L323.4,460.6z M350.4,311.5c-0.4-0.4-0.9-0.9-1.3-1.7c-5.4-9-18.3-8.9-24.4-0.3c-2.5,3.6-4.9,1.8-7.3,1.6
	c-0.8,0-2,0-2.2,0.4c-1.4,3-4.1,2.4-6.5,2.6c-2.6,0.3-5.3,0.3-7.8,0.9c-1.1,0.3-2.2,0.7-3.3,1.2c-2.5,1.1-5.4,0.5-7.2-1.6
	c-2.4-2.7-4.9-5.6-7.4-8.3c-3.3-3.7-6.8-7.4-10.1-11.1c-0.6-0.7-1.8-1.4-1.8-2.1c0-1.7,0.1-3.4,0.2-5c0.1-1.7,2.2-2.4,3.3-1.2
	c1,1.1,2.1,2.1,3.4,2.8c2.2,1.3,5.1,1.5,7.7,1.9c0.6,0.1,1.9-0.9,2.1-1.6c1.1-4,4.4-2.9,7.1-3.2c2.5-0.3,4.2,0.7,5.3,3.2
	c1.4,3.5,6.6,5,11,4.6c7.6-0.6,15.2-0.6,22.8-0.8c3.2-0.1,6.4-0.1,9.6-0.3c4.2-0.2,7.3,2.4,8.4,6.6c0.7,2.7,2.2,5.1,3.3,7.7
	c0,0,0,0,0,0C356.4,311,352.8,313.6,350.4,311.5z"/>
<path class="st1" d="M426.2,72.1c-20.2-11.3-36.8-17.9-54-21.5l-0.1,0c-17.5-3.2-34.6-4.7-53.7-4.4l-0.2,0
	c-16.5,0.9-33.5,2.7-53.4,5.8c-8.9,1.5-17.8,3-26.5,4.5c-8.7,1.5-17.6,3.1-26.4,4.5c-19.6,3-36.3,4.8-52.6,5.7
	c-18.6,0.2-35.2-1.1-52.2-4.3c-16.7-3.7-33.2-10.3-52-20.8L52,39.9c-1-0.5-2.1,0.2-2.1,1.3v180.2c0,0.6,0.4,1.1,0.9,1.3l1.2,0.5
	c18.1,7,34.8,10.9,54,12.7l0.3,0c1.8,0,3.6,0.1,5.4,0.1c15.6,0,31.1-1.4,48.3-4.5l0.1,0c16.5-3.6,33.5-8.2,53.4-14.5
	c8.9-2.9,17.8-6,26.5-8.9c8.7-2.9,17.7-6,26.5-8.9c19.6-6.2,36.4-10.8,52.6-14.3c18.6-3.3,35.1-4.6,52-4.3c0,0,0.1,0,0.1,0
	c18.5,1.7,34.5,5.4,51.8,12.2l2.8,1.1c0.9,0.4,2-0.3,2-1.3V73.9c0-0.5-0.3-1-0.7-1.3L426.2,72.1z"/>
<path d="M422.8,115.8l3,1.5c1,0.5,2.1-0.2,2.1-1.3V73.8c0-0.5-0.3-1-0.7-1.3l-0.9-0.5c-20.2-11.3-36.8-17.9-54-21.5l-2.5-0.5
	c-0.9-0.2-1.7,0.5-1.7,1.4v38.2c0,0.9-0.7,1.5-1.6,1.4c-14-1.5-27.9-1.9-43-1.1c-0.8,0-1.5-0.6-1.5-1.4V47.4c0-0.8-0.7-1.5-1.5-1.4
	l-2.1,0.1c-16.5,0.9-33.5,2.7-53.4,5.7l-1.6,0.3c-0.7,0.1-1.2,0.7-1.2,1.4v44.8c0,0.7-0.5,1.3-1.1,1.4c-7.6,1.7-15.3,3.5-22.8,5.2
	c-6.7,1.5-13.6,3.1-20.5,4.6c-0.9,0.2-1.8-0.5-1.8-1.4V62c0-0.9-0.8-1.6-1.7-1.4l-2.3,0.4c-19.7,3-36.4,4.8-52.7,5.7l-1.9,0.1
	c-0.8,0-1.4,0.7-1.4,1.4v50.1c0,0.8-0.6,1.4-1.4,1.4c-15.3,0.8-29.4,0.4-43.5-1.2c-0.7-0.1-1.3-0.7-1.3-1.4V64
	c0-0.7-0.5-1.3-1.1-1.4l-1.5-0.3c-16.7-3.7-33.2-10.3-52-20.8L52,39.8c-1-0.5-2.1,0.2-2.1,1.3v62.8c0,0.5,0.3,1,0.8,1.3l1,0.5
	c16.6,8.3,32.6,13.9,50.1,17.7c0.7,0.1,1.1,0.7,1.1,1.4v46.7c0,0.9-0.8,1.6-1.7,1.4c-16.2-2.8-30.8-7.2-46.4-14.2l-2.9-1.3
	c-1-0.4-2,0.3-2,1.3v62.5c0,0.6,0.4,1.1,0.9,1.3l1.2,0.5c18.1,7,34.8,10.9,54,12.7l2.2,0.2c0.8,0.1,1.6-0.6,1.6-1.4v-52.7
	c0-0.8,0.7-1.5,1.5-1.4c4.7,0.3,9.3,0.4,14,0.4c9.4,0,18.9-0.5,29-1.6c0.8-0.1,1.6,0.6,1.6,1.4v49.9c0,0.9,0.8,1.6,1.7,1.4l2.5-0.5
	c16.5-3.6,33.5-8.2,53.3-14.5l1.3-0.4c0.6-0.2,1-0.7,1-1.4v-47.7c0-0.6,0.4-1.2,1.1-1.4c7.7-2.1,15.5-4.3,23-6.5
	c6.6-1.9,13.5-3.8,20.3-5.7c0.9-0.3,1.8,0.4,1.8,1.4v43.3c0,1,0.9,1.7,1.9,1.4l2.7-0.9c19.7-6.2,36.4-10.8,52.7-14.3l1.5-0.3
	c0.7-0.1,1.1-0.7,1.1-1.4v-41.4c0-0.7,0.6-1.4,1.3-1.4c15.3-1.7,29.4-2.1,43.5-1.2c0.8,0,1.4,0.7,1.4,1.4v38.4
	c0,0.7,0.6,1.4,1.3,1.4l1.8,0.2c18.5,1.7,34.6,5.4,52,12.2l2.8,1.1c0.9,0.4,2-0.3,2-1.3v-42c0-0.6-0.3-1.1-0.9-1.3l-1.1-0.5
	c-16.8-7.4-32.3-12.1-49.9-15c-0.7-0.1-1.2-0.7-1.2-1.4v-31.6c0-0.9,0.9-1.6,1.8-1.4C392.8,102.8,407.2,108,422.8,115.8z M313.8,135
	c-13.5,2.3-27.4,5.3-43.2,9.3c-0.9,0.2-1.8-0.5-1.8-1.4v-37.3c0-0.7,0.5-1.3,1.2-1.4c15.9-3.2,29.9-5.5,43.4-7.2
	c0.9-0.1,1.6,0.6,1.6,1.4v35.1C315,134.3,314.5,134.9,313.8,135z M207.8,161.8c-15.9,4.1-29.9,7.2-43.4,9.6
	c-0.9,0.2-1.7-0.5-1.7-1.4v-43.3c0-0.7,0.5-1.3,1.3-1.4c13.5-1.6,27.4-3.9,43.1-7c0.9-0.2,1.7,0.5,1.7,1.4v40.8
	C208.9,161,208.5,161.6,207.8,161.8z"/>
<path class="st2" d="M164.7,160.5l-25.5-30.3c-1.2-1.4-3.4-0.8-3.8,0.9l-9,40.6c-0.2,0.7-0.6,1.3-1.3,1.5l-38.5,15.6
	c-1.7,0.7-1.8,3-0.3,3.9l35.8,21.1c0.6,0.4,1,1,1.1,1.7l2.9,41.4c0.1,1.8,2.3,2.7,3.6,1.5l31.1-27.5c0.5-0.5,1.3-0.7,2-0.5l40.3,10
	c1.7,0.4,3.2-1.3,2.5-3l-16.6-38.1c-0.3-0.7-0.2-1.4,0.1-2l18.3-29.3c0.7-1.1,2.2-1.4,3.2-0.6l15,11.9c1.4,1.1,3.5,0.1,3.5-1.7
	l0.5-31.7c0-0.7,0.4-1.4,1-1.8l26.4-17.6c1.5-1,1.2-3.3-0.5-3.9l-30-10.3c-0.7-0.2-1.2-0.8-1.4-1.5l-8.6-30.6
	c-0.5-1.7-2.7-2.2-3.8-0.7l-19,25.4c-0.4,0.6-1.1,0.9-1.8,0.9l-31.7-1.3c-1.8-0.1-2.9,1.9-1.9,3.4l18.3,26c0.4,0.6,0.5,1.3,0.3,2
	l-8.8,23.6C167.3,161.7,165.9,161.9,164.7,160.5z"/>
<path class="st0" d="M198.5,236l-37.6-9.3c-0.4-0.1-0.8,0-1.1,0.3l-29,25.7c-0.7,0.6-1.9,0.2-1.9-0.8l-2.7-38.6
	c0-0.4-0.2-0.7-0.6-0.9l-33.4-19.6c-0.8-0.5-0.7-1.7,0.2-2.1l35.9-14.5c0.4-0.1,0.6-0.5,0.7-0.8l8.4-37.8c0.2-0.9,1.4-1.2,2-0.5
	l24.9,29.6c0.2,0.3,0.6,0.4,1,0.4l38.5-3.7c1-0.1,1.6,1,1.1,1.8l-20.5,32.9c-0.2,0.3-0.2,0.7-0.1,1.1l15.5,35.5
	C200.2,235.3,199.4,236.3,198.5,236z"/>
<path class="st0" d="M250,124.6l-27.4-9.4c-0.4-0.1-0.6-0.4-0.7-0.8l-7.8-27.9c-0.3-0.9-1.5-1.2-2.1-0.4l-17.4,23.1
	c-0.2,0.3-0.6,0.5-1,0.5l-28.9-1.2c-1,0-1.6,1-1,1.8l16.6,23.7c0.2,0.3,0.3,0.7,0.1,1.1l-10.1,27.1c-0.3,0.9,0.5,1.8,1.4,1.5
	l27.6-8.5c0.4-0.1,0.8,0,1.1,0.2l22.7,17.9c0.8,0.6,1.9,0.1,1.9-0.9l0.4-28.9c0-0.4,0.2-0.7,0.5-1l24.1-16
	C251.1,126.1,250.9,124.9,250,124.6z"/>
</svg>
