<?xml version="1.0" encoding="utf-8"?>
<!-- Generator: Adobe Illustrator 21.1.0, SVG Export Plug-In . SVG Version: 6.00 Build 0)  -->
<svg version="1.1" id="Layer_1" xmlns="http://www.w3.org/2000/svg" xmlns:xlink="http://www.w3.org/1999/xlink" x="0px" y="0px"
	 viewBox="0 0 1013 1308.9" style="enable-background:new 0 0 1013 1308.9;" xml:space="preserve">
<style type="text/css">
	.st0{fill:#D8D9DA;}
</style>
<path class="st0" d="M419.2,490.7c-20.2-11.3-36.8-17.9-54-21.5l-0.1,0c-17.5-3.2-34.6-4.7-53.7-4.4l-0.2,0
	c-16.5,0.9-33.5,2.7-53.4,5.8c-8.9,1.5-17.8,3-26.5,4.5c-8.7,1.5-17.6,3.1-26.4,4.5c-19.6,3-36.3,4.8-52.6,5.7
	c-18.6,0.2-35.2-1.1-52.2-4.3c-16.7-3.7-33.2-10.3-52-20.8l-3.1-1.7c-1-0.5-2.1,0.2-2.1,1.3v180.2c0,0.6,0.4,1.1,0.9,1.3l1.2,0.5
	c18.1,7,34.8,10.9,54,12.7l0.3,0c1.8,0,3.6,0.1,5.4,0.1c15.6,0,31.1-1.4,48.3-4.5l0.1,0c16.5-3.6,33.5-8.2,53.4-14.5
	c8.9-2.9,17.8-6,26.5-8.9c8.7-2.9,17.7-6,26.5-8.9c19.6-6.2,36.4-10.8,52.6-14.3c18.6-3.3,35.1-4.6,52-4.3c0,0,0.1,0,0.1,0
	c18.5,1.7,34.5,5.4,51.8,12.2l2.8,1.1c0.9,0.4,2-0.3,2-1.3V492.4c0-0.5-0.3-1-0.7-1.3L419.2,490.7z"/>
</svg>
