<?xml version="1.0" encoding="utf-8"?>
<!-- Generator: Adobe Illustrator 21.1.0, SVG Export Plug-In . SVG Version: 6.00 Build 0)  -->
<svg version="1.1" id="Layer_1" xmlns="http://www.w3.org/2000/svg" xmlns:xlink="http://www.w3.org/1999/xlink" x="0px" y="0px"
	 viewBox="0 0 1013 1308.9" style="enable-background:new 0 0 1013 1308.9;" xml:space="preserve">
<path d="M396.7,788.4c-12.7-6.7-34.2-12.8-37.2-13.8c-3-1-9-2.4-7.7-5.8c28.2,1.1,28.3-8.5,31.8-17.5c3.5-9,1.9-15.9,1.4-18.2
	c-0.5-2.3-1.5-4.8,0.8-6.7c2.3-2-1.5-14.9-4-26.3c-2.2-10.5-10.1-24.8-15.6-30.9c-0.8-0.9-1-2.2-0.4-3.2c2.9-5.8,8.7-20.9-2.7-30.5
	c-12.9-10.9-35-5.7-45.6,0.9c-0.2,7.4,2.9,6.1,8.3,8.1c5.4,1.9,4.6,8.6,0.6,10.8c-3.9,2.3-7,3.8-6.7,8.2c0.1,1.7,0.1,3.2,0.1,4.5
	c0,1.6-1.5,2.9-3.1,2.6c-7.2-1.2-24.9-4-29.3-2.8c-5.6,1.6-9.9-0.1-14.8-0.5c-4.9-0.4-5.6-4.8-10.5-3.2c-4.3,1.4-6.6,1.5-8.7,5.5
	c-0.6,1.1-2,1.6-3.1,1l-5.6-3c3.1-4.9,3.8-5.8,0.6-7.8c-3.2-2.1-7.6,5.3-8.4,9.1c-0.8,3.8,6.3,4.1,6.7,6.1c0.4,2,0.3,8.4-15.5,11.7
	c-5.2,1.1-10.2,4.1-14.6,7.6c0,0,0,0,0,0c-7.6,5.1-11.8,0.4-19.5-3.6c-7.7-4-14.7-6.3-29.1-3.8c-14.4,2.5-13.3,4-10.5,6.1
	c2.8,2.1,29,10.6,37.2,10.1c8.2-0.5,5.9,8.5-0.8,13.2l-21.5,14.9c-0.8,0.5-1.8,0.5-2.5-0.2c-1-0.9-2-1.8-3.1-2.6
	c-0.4-0.3-0.5-0.9-0.2-1.3l1.1-1.5c0.3-0.4,0.2-1-0.3-1.4c-0.8-0.6-1.7-1.2-2.5-1.7l-2.7-1.5c-0.5-0.3-1.1-0.1-1.3,0.3l-0.9,1.7
	c-0.2,0.4-0.8,0.6-1.2,0.4c-1.5-0.7-3-1.4-4.6-2c-0.5-0.2-0.7-0.7-0.6-1.2l0.6-1.8c0.2-0.5-0.1-1-0.7-1.2c-1-0.3-1.9-0.6-2.9-0.9
	l-3-0.7c-0.6-0.1-1.1,0.2-1.2,0.7l-0.3,1.8c-0.1,0.5-0.6,0.8-1.1,0.7c-1.7-0.3-3.3-0.5-5-0.6c-0.5,0-0.9-0.4-0.9-1l0.1-1.9
	c0-0.5-0.4-1-1-1l-3.1,0l-3.1,0.3c-0.6,0.1-1,0.5-0.9,1l0.2,1.9c0.1,0.5-0.3,0.9-0.8,1c-1.7,0.2-3.3,0.6-4.9,1
	c-0.5,0.1-1-0.2-1.1-0.7l-0.5-1.8c-0.1-0.5-0.7-0.8-1.2-0.6c-1,0.3-2,0.5-2.9,0.9l-2.8,1.1c-0.5,0.2-0.8,0.8-0.6,1.2l0.6,1.4
	c0.3,0.7,0,1.4-0.6,1.7c-1.3,0.6-2.5,1.3-3.8,2c-0.6,0.4-1.4,0.2-1.8-0.4l-0.8-1.3c-0.3-0.4-0.9-0.6-1.4-0.2c-1.8,1-3.3,2.4-4.9,3.6
	c-0.5,0.4-0.5,1-0.2,1.4l1,1.2c0.5,0.5,0.4,1.4-0.1,1.8c-1,1-2.1,2-3,3c-0.5,0.5-1.3,0.6-1.8,0.1l-1.1-1c-0.4-0.3-1-0.3-1.4,0.2
	l-1,1.2l-0.9,1.2l-1.8,2.5c-0.3,0.5-0.2,1.1,0.3,1.4l1.3,0.8c0.6,0.4,0.8,1.2,0.4,1.8c-0.7,1.2-1.4,2.5-2,3.8
	c-0.3,0.6-1.1,0.9-1.7,0.7l-1.3-0.6c-0.5-0.2-1.1,0-1.3,0.6c-0.2,0.5-0.4,0.9-0.6,1.4l-0.5,1.5l-0.9,2.9c-0.2,0.5,0.1,1.1,0.6,1.2
	l1.7,0.5c0.5,0.1,0.9,0.7,0.7,1.3c-0.4,1.6-0.7,3.1-0.9,4.7c-0.1,0.6-0.6,1-1.1,0.9l-1.7-0.2c-0.5-0.1-1,0.3-1.1,0.9l-0.2,1.5
	c0,0.5,0,1,0,1.5l0,3.1c0,0.6,0.4,1,1,1l1.8-0.1c0.6,0,1,0.4,1.1,1c0.1,1.6,0.3,3.2,0.5,4.8c0.1,0.6-0.3,1.1-0.8,1.2l-1.7,0.3
	c-0.5,0.1-0.8,0.6-0.7,1.2l0.3,1.5l0.4,1.5l0.9,2.9c0.1,0.6,0.8,0.8,1.2,0.7l1.7-0.6c0.5-0.2,1.1,0.1,1.3,0.6c0.6,1.5,1.2,3,1.9,4.4
	c0.3,0.5,0.1,1.1-0.4,1.4l-1.5,0.8c-0.5,0.2-0.6,0.9-0.4,1.4c0.4,0.9,2.7,4.4,3.2,5.2c0.4,0.5,1,0.6,1.4,0.3l1.7-1.3
	c0.3-0.2,0.7-0.2,0.9,0.1c1.1,1.5,2.3,2.9,3.6,4.2c0.2,0.2,0.2,0.6,0,0.9l-1.5,1.5c-0.4,0.4-0.4,1,0,1.4c0.7,0.7,4.2,3.7,4.7,4
	c0.5,0.3,1.1,0.3,1.4-0.2l1.3-1.7c0.2-0.3,0.6-0.3,0.9-0.1c1.5,1.1,3.1,2.1,4.7,3c0.3,0.2,0.4,0.5,0.3,0.9l-1,1.9
	c-0.2,0.5,0,1.1,0.5,1.3l5.6,2.4c0.5,0.2,1.1-0.1,1.3-0.6l0.7-2c0.1-0.3,0.5-0.5,0.8-0.4c1.5,0.5,4.2,1.1,5.4,1.4
	c0.3,0.1,0.5,0.4,0.5,0.7l-0.4,2.1c-0.1,0.5,0.3,1,0.8,1.1c1,0.2,5.1,0.7,6.1,0.7c0.6,0,1.1-0.4,1.1-0.9l0.1-1.8c0-0.6,0.5-1,1-1
	c1.6,0,3.2-0.1,4.8-0.2c0.6-0.1,1.1,0.3,1.1,0.9l0.2,1.8c0.1,0.5,0.6,0.9,1.1,0.8c1-0.1,6-1.2,6-1.2c0.6-0.2,0.9-0.7,0.7-1.2
	l-0.5-1.7c-0.1-0.5,0.2-1.1,0.7-1.3c1.5-0.5,3.1-1,4.5-1.6c0.5-0.2,1.1,0,1.3,0.5l0.7,1.7c0.2,0.5,0.8,0.7,1.3,0.5
	c0,0,5-2.6,5.4-2.9c0.5-0.3,0.6-0.9,0.4-1.4l-0.9-1.4c-0.3-0.5-0.2-1.2,0.3-1.6c1.3-0.9,2.5-1.8,3.7-2.7c0.5-0.4,1.2-0.3,1.6,0.1
	l1.1,1.3c0.3,0.4,1,0.4,1.4,0c1.5-1.4,3-2.7,4.3-4.4c0.4-0.4,0.4-1.1,0-1.4l-1.3-1.1c-0.5-0.4-0.5-1.1-0.1-1.6
	c1-1.2,1.9-2.4,2.7-3.7c0.3-0.5,1-0.7,1.6-0.3l1.4,0.9c0.4,0.3,1,0.1,1.3-0.4c1-1.8,2.1-3.5,2.8-5.4c0.2-0.5,0-1.1-0.5-1.3l-1.6-0.7
	c-0.5-0.2-0.7-0.8-0.5-1.3c0.5-1.4,1.2-3.5,1.6-4.7c0.2-0.5,0.7-0.8,1.2-0.7l1.8,0.5c0.5,0.1,1-0.2,1.1-0.8l1.1-6
	c0.1-0.6-0.3-1.1-0.8-1.1l-1.8-0.2c-0.5-0.1-0.9-0.5-0.9-1.1c0.1-1.6,0.2-3.3,0.2-4.9c0-0.5,0.4-1,1-1l1.8-0.1
	c0.5,0,0.9-0.5,0.9-1.1c-0.2-2-0.3-4.1-0.7-6.1c-0.1-0.6-0.6-0.9-1.1-0.8l-1.9,0.4c-0.4,0.1-0.8-0.2-0.9-0.6l0,0
	c-0.2-0.8,0.1-1.6,0.8-2c9-6.3,19.4-13.4,27.3-18.9c1.8-1.3,4.3,0.2,4.1,2.4c-0.7,7.5-1.3,15.5-1.3,19.1c0,7.6,9.8,7.1,7.4,21.6
	s-7.6,21,7.9,32.3c15.5,11.3,42.3,10.1,39.4,16.5c-2.8,6.4,14,8.8,11.6,14.6c-1.3,3.2-1,5,0.5,6.9l0,0.1l-0.9,2.9
	c-0.2,0.5,0.1,1.1,0.6,1.2l1.9,0.5c0.4,0.1,0.7,0.6,0.6,1c-0.4,1.7-0.7,3.4-1,5.1c-0.1,0.4-0.5,0.8-0.9,0.7l-1.9-0.2
	c-0.5-0.1-1,0.3-1.1,0.9l-0.2,6.1c0,0.6,0.4,1,1,1l2-0.1c0.5,0,0.8,0.3,0.9,0.8c0.1,1.7,0.3,3.5,0.6,5.2c0.1,0.4-0.2,0.9-0.7,1
	l-1.9,0.4c-0.5,0.1-0.8,0.6-0.7,1.2l1.6,5.9c0.1,0.6,0.8,0.8,1.2,0.7l1.9-0.7c0.4-0.2,0.9,0.1,1,0.5c0.6,1.6,1.3,3.2,2.1,4.8
	c0.2,0.4,0.1,0.9-0.3,1.1l-1.7,0.9c-0.5,0.2-0.6,0.9-0.4,1.4c0.4,0.9,2.7,4.4,3.2,5.2c0.4,0.5,1,0.6,1.4,0.3l1.6-1.2
	c0.4-0.3,0.9-0.2,1.1,0.2c1.1,1.4,2.2,2.7,3.4,4c0.3,0.3,0.3,0.8,0,1.2l-1.4,1.4c-0.4,0.4-0.4,1,0,1.4c0.7,0.7,4.2,3.7,4.7,4
	c0.5,0.3,1.1,0.3,1.4-0.2l1-1.4c0.3-0.5,1-0.5,1.4-0.2c1.3,0.9,2.7,1.8,4.1,2.6c0.5,0.3,0.7,0.9,0.4,1.4l-0.8,1.6
	c-0.2,0.5,0,1.1,0.5,1.3l5.6,2.4c0.5,0.2,1.1-0.1,1.3-0.6l0.6-1.6c0.2-0.5,0.7-0.8,1.3-0.6c1.3,0.4,2.6,0.8,4,1.1
	c0.2,0.1,0.5,0.1,0.7,0.2c0.5,0.1,0.9,0.6,0.8,1.2l-0.3,1.7c-0.1,0.5,0.3,1,0.8,1.1c1,0.2,5.1,0.7,6.1,0.7c0.6,0,1.1-0.4,1.1-0.9
	l0.1-1.8c0-0.6,0.5-1,1-1c1.6,0,3.2-0.1,4.8-0.2c0.6-0.1,1,0.3,1.1,0.9l0.2,1.8c0.1,0.5,0.6,0.9,1.1,0.8c1-0.1,6-1.2,6-1.2
	c0.6-0.2,0.9-0.7,0.7-1.2l-0.5-1.7c-0.2-0.6,0.2-1.1,0.7-1.3c1.5-0.5,3-1,4.5-1.6c0.5-0.2,1.1,0,1.4,0.6l0.7,1.7
	c0.2,0.5,0.8,0.7,1.3,0.5c0,0,5-2.6,5.4-2.9c0.5-0.3,0.6-0.9,0.4-1.4l-1-1.5c-0.3-0.5-0.2-1.1,0.3-1.4c1.3-0.9,2.6-1.8,3.8-2.8
	c0.4-0.4,1.1-0.3,1.5,0.1l1.2,1.4c0.3,0.4,1,0.4,1.4,0c1.5-1.4,3-2.7,4.3-4.4c0.4-0.4,0.4-1.1,0-1.4l-1.3-1.1
	c-0.4-0.4-0.5-1-0.1-1.5c1-1.2,1.9-2.5,2.8-3.8c0.3-0.5,1-0.6,1.4-0.3l1.5,1c0.4,0.3,1,0.1,1.3-0.4c1-1.8,2.1-3.5,2.8-5.4
	c0.2-0.5,0-1.1-0.5-1.3l-1.6-0.7c-0.5-0.2-0.8-0.8-0.6-1.4c0.5-1.2,0.9-2.4,1.3-3.7c0.1-0.2,0.1-0.3,0.2-0.5c0.2-0.7,1-1.1,1.7-0.9
	l1.4,0.4c0.5,0.1,1-0.2,1.1-0.8l1.1-6c0.1-0.6-0.3-1.1-0.8-1.1l-1.4-0.2c-0.7-0.1-1.3-0.7-1.2-1.5c0.1-1.4,0.2-2.8,0.1-4.1
	c0-0.8,0.6-1.4,1.3-1.4l1.5-0.1c0.5,0,0.9-0.5,0.9-1.1c-0.2-2-0.3-4.1-0.7-6.1c-0.1-0.6-0.6-0.9-1.1-0.8l-1.4,0.3
	c-0.7,0.1-1.4-0.3-1.6-1.1c-0.3-1.3-0.7-2.7-1.1-4c-0.2-0.7,0.1-1.5,0.9-1.7l1.4-0.5c0.5-0.2,0.7-0.7,0.5-1.3l-2.5-5.6
	c-0.3-0.5-0.8-0.7-1.3-0.5l-1.6,0.8c-0.5,0.3-1.1,0.1-1.3-0.4c-0.8-1.4-1.7-2.8-2.6-4.1c-0.3-0.4-0.2-1.1,0.2-1.4l1.4-1.1
	c0.4-0.3,0.5-0.9,0.1-1.4l-4-4.6c-0.4-0.4-1-0.4-1.4-0.1L363,831c-0.4,0.4-1,0.4-1.4,0c-1.2-1.1-2.4-2.2-3.7-3.2
	c-0.4-0.3-0.5-0.9-0.2-1.4l1.1-1.4c0.3-0.4,0.2-1-0.3-1.4c-0.8-0.6-1.7-1.2-2.5-1.7l-2.7-1.5c-0.5-0.3-1.1-0.1-1.3,0.3l-0.8,1.6
	c-0.3,0.5-0.8,0.7-1.3,0.4c-1.4-0.7-2.9-1.4-4.5-1.9c-0.5-0.2-0.8-0.8-0.6-1.3l0.6-1.7c0.2-0.5-0.1-1-0.7-1.2
	c-1-0.3-1.9-0.6-2.9-0.9l-3-0.7c-0.6-0.1-1.1,0.2-1.2,0.7l-0.3,1.6c-0.1,0.6-0.7,1-1.3,0.9c-1.5-0.2-3.1-0.4-4.6-0.5
	c-0.6,0-1.1-0.6-1.1-1.2l0.1-1.7c0-0.5-0.4-1-1-1l-3.1,0l-3.1,0.3c-0.6,0.1-1,0.5-0.9,1l0.2,1.6c0.1,0.6-0.4,1.2-1,1.3
	c-1.5,0.2-3,0.5-4.5,0.9c-0.6,0.1-1.2-0.2-1.4-0.8l-0.4-1.6c-0.1-0.5-0.7-0.8-1.2-0.6c-1,0.3-2,0.5-2.9,0.9l-2.8,1.1
	c-0.5,0.2-0.8,0.8-0.6,1.2l0.7,1.5c0.3,0.6,0,1.2-0.6,1.5c-0.7,0.3-1.4,0.7-2.1,1c0,0,0,0,0,0c-0.2,0.1-0.4,0.2-0.5,0.3l-2.6-2.2
	c0,0,0,0,0,0c-4.2-2.7-1.9-15.1,2.7-20.2c4.6-5.1,11.7-1.3,18.9,1.6c7.1,2.9,11.4,6.3,14.7,5.4c3.2-0.9,4.2-3.8,11.8-4.1
	c7.6-0.4,19.5,0,27.6,0.2c6.1,0.2,7.9-2.6,7.5-5.9c-0.2-1.4,1.2-2.4,2.4-1.9c19.5,8.6,24.7,9.3,28.4,5
	C415.2,797.2,409.4,795,396.7,788.4z M165.7,776.9c-5.3,15.7-21.7,25.2-37.9,22c-20.1-4-31.8-25.1-24.5-44.4
	c5.6-14.7,21-23.5,36.4-20.9c5.1,0.9,9.7,2.8,13.6,5.5c1,0.7,0.9,2.1,0,2.8l-11.5,7.9c-0.9-0.4-1.8-0.8-2.8-1
	c-9.6-2.6-19.5,3.1-22.1,12.7s3.1,19.5,12.7,22.1c3,0.8,6,0.8,8.9,0.1c0.1,0,0.2-0.1,0.2-0.1c2.7-0.5,2.2,6.9,8.6,3.3
	c6.6-3.8,10.3-6.2,13.2-8.1c2.9-1.9-2.7-7.5,1.8-10.7c0.4-0.3,1.2-0.8,2.3-1.6c1.2-0.8,2.8,0.1,2.7,1.5
	C167.2,771,166.7,774,165.7,776.9z M257.8,684.1c0.3-2.3,0.8-4.9,3.9-5.1c2.8-0.2,5.7-0.6,8.5-0.7c0.8,0,1.8,0.3,2.5,0.8
	c1.5,1.1,2.7,1.4,3.8-0.5c0.3-0.5,1.2-1.2,1.6-1.1c3.9,1.1,8.4,0.4,11.6,3.9c1.3,1.3,3.4,2.2,5.3,2.6c4.4,1,8.9,1.4,13.2,2.6
	c5.2,1.4,10.3,3.2,15.4,4.9c1,0.3,1.9,0.8,2.8,1.1c0,0.4,0,0.8,0,1.1c-3.7,0.7-7.3,1.8-11,2c-7,0.4-14,0.2-21,0.4
	c-1.5,0.1-3.1,1.8-4.4,1.5c-8.3-1.8-17.4-1.1-24-8.1c-1.1-1.1-3.2-1.4-4.9-1.7C259.1,687.5,257.5,686.4,257.8,684.1z M316.4,879.6
	c2,1.7,4.4,3.1,7.2,3.8c9.6,2.6,19.5-3.1,22.1-12.7c2-7.2-0.8-14.6-6.3-18.9l0,0l-18.5-15.2c-1.1-0.9-0.7-2.7,0.8-3
	c5.5-1.1,11.3-0.9,17.1,1c15.8,5.2,25.4,21.7,22.1,38c-3.8,19-22.8,30.5-41.2,25.5c-14.9-4-24.6-17.5-24.5-32.2
	c0-1.5,1.7-2.2,2.8-1.3L316.4,879.6z M343.4,730.6c-0.4-0.4-0.9-0.9-1.3-1.7c-5.4-9-18.3-8.9-24.4-0.3c-2.5,3.6-4.9,1.8-7.3,1.6
	c-0.8,0-2,0-2.2,0.4c-1.4,3-4.1,2.4-6.5,2.6c-2.6,0.3-5.3,0.3-7.8,0.9c-1.1,0.3-2.2,0.7-3.3,1.2c-2.5,1.1-5.4,0.5-7.2-1.6
	c-2.4-2.7-4.9-5.6-7.4-8.3c-3.3-3.7-6.8-7.4-10.1-11.1c-0.6-0.7-1.8-1.4-1.8-2.1c0-1.7,0.1-3.4,0.2-5c0.1-1.7,2.2-2.4,3.3-1.2
	c1,1.1,2.1,2.1,3.4,2.8c2.2,1.3,5.1,1.5,7.7,1.9c0.6,0.1,1.9-0.9,2.1-1.6c1.1-4,4.4-2.9,7.1-3.2c2.5-0.3,4.2,0.7,5.3,3.2
	c1.4,3.5,6.6,5,11,4.6c7.6-0.6,15.2-0.6,22.8-0.8c3.2-0.1,6.4-0.1,9.6-0.3c4.2-0.2,7.3,2.4,8.4,6.6c0.7,2.7,2.2,5.1,3.3,7.7
	c0,0,0,0,0,0C349.4,730.1,345.8,732.6,343.4,730.6z"/>
</svg>
