<?xml version="1.0" encoding="utf-8"?>
<!-- Generator: Adobe Illustrator 21.1.0, SVG Export Plug-In . SVG Version: 6.00 Build 0)  -->
<svg version="1.1" id="Layer_1" xmlns="http://www.w3.org/2000/svg" xmlns:xlink="http://www.w3.org/1999/xlink" x="0px" y="0px"
	 viewBox="0 0 1013 1308.9" style="enable-background:new 0 0 1013 1308.9;" xml:space="preserve">
<style type="text/css">
	.st0{fill:#FFF200;}
</style>
<path class="st0" d="M191.6,162.7l-20.5,32.9c-0.2,0.3-0.2,0.7-0.1,1.1l15.5,35.5c0.4,0.9-0.4,1.8-1.4,1.6l-37.6-9.3
	c-0.4-0.1-0.8,0-1.1,0.3l-29,25.7c-0.7,0.6-1.9,0.2-1.9-0.8l-2.7-38.6c0-0.4-0.2-0.7-0.6-0.9l-33.4-19.6c-0.8-0.5-0.7-1.7,0.2-2.1
	l35.9-14.5c0.4-0.1,0.6-0.5,0.7-0.8l8.4-37.8c0.2-0.9,1.4-1.2,2-0.5l24.9,29.6c0.2,0.3,0.6,0.4,1,0.4l38.5-3.7
	C191.5,160.8,192.1,161.9,191.6,162.7z M250.3,115.4l-27.4-9.4c-0.4-0.1-0.6-0.4-0.7-0.8l-7.8-27.9c-0.3-0.9-1.5-1.2-2.1-0.4
	l-17.4,23.1c-0.2,0.3-0.6,0.5-1,0.5l-28.9-1.2c-1,0-1.6,1-1,1.8l16.6,23.7c0.2,0.3,0.3,0.7,0.1,1.1l-10.1,27.1
	c-0.3,0.9,0.5,1.8,1.4,1.5l27.6-8.5c0.4-0.1,0.8,0,1.1,0.2l22.7,17.9c0.8,0.6,1.9,0.1,1.9-0.9l0.4-28.9c0-0.4,0.2-0.7,0.5-1l24.1-16
	C251.4,116.9,251.2,115.7,250.3,115.4z"/>
</svg>
