<?xml version="1.0" encoding="utf-8"?>
<!-- Generator: Adobe Illustrator 21.1.0, SVG Export Plug-In . SVG Version: 6.00 Build 0)  -->
<svg version="1.1" id="Layer_1" xmlns="http://www.w3.org/2000/svg" xmlns:xlink="http://www.w3.org/1999/xlink" x="0px" y="0px"
	 viewBox="0 0 1013 1308.9" style="enable-background:new 0 0 1013 1308.9;" xml:space="preserve">
<style type="text/css">
	.st0{fill:#155C95;}
</style>
<path class="st0" d="M317.7,158.2l-25.5-30.3c-1.2-1.4-3.4-0.8-3.8,0.9l-9,40.6c-0.2,0.7-0.6,1.3-1.3,1.5l-38.5,15.6
	c-1.7,0.7-1.8,3-0.3,3.9l35.8,21.1c0.6,0.4,1,1,1.1,1.7l2.9,41.4c0.1,1.8,2.3,2.7,3.6,1.5l31.1-27.5c0.5-0.5,1.3-0.7,2-0.5l40.3,10
	c1.7,0.4,3.2-1.3,2.5-3L342.1,197c-0.3-0.7-0.2-1.4,0.1-2l18.3-29.3c0.7-1.1,2.2-1.4,3.2-0.6l15,11.9c1.4,1.1,3.5,0.1,3.5-1.7
	l0.5-31.7c0-0.7,0.4-1.4,1-1.8l26.4-17.6c1.5-1,1.2-3.3-0.5-3.9l-30-10.3c-0.7-0.2-1.2-0.8-1.4-1.5l-8.6-30.6
	c-0.5-1.7-2.7-2.2-3.8-0.7l-19,25.4c-0.4,0.6-1.1,0.9-1.8,0.9l-31.7-1.3c-1.8-0.1-2.9,1.9-1.9,3.4l18.3,26c0.4,0.6,0.5,1.3,0.3,2
	l-8.8,23.6C320.3,159.4,318.9,159.6,317.7,158.2z"/>
</svg>
